<svg xmlns="http://www.w3.org/2000/svg" xmlns:xlink="http://www.w3.org/1999/xlink" viewBox="-1280 -1058 794 600">
  <defs>
    <style>
      .cls-1 {
        clip-path: url(#clip-Artboard_1);
      }

      .cls-2, .cls-6 {
        fill: #fff;
      }

      .cls-2, .cls-3, .cls-4, .cls-5 {
        fill-rule: evenodd;
      }

      .cls-3 {
        fill: #d1d3d4;
      }

      .cls-4 {
        fill: #053c48;
      }

      .cls-5 {
        fill: #231f20;
      }
    </style>
    <clipPath id="clip-Artboard_1">
      <rect x="-1280" y="-1058" width="794" height="600"/>
    </clipPath>
  </defs>
  <g id="Artboard_1" data-name="Artboard – 1" class="cls-1">
    <rect class="cls-6" x="-1280" y="-1058" width="794" height="600"/>
    <g id="Group_1" data-name="Group 1" transform="translate(-1280 -1058)">
      <path id="Path_4" data-name="Path 4" class="cls-2" d="M706.1,121.6H184.2a43.531,43.531,0,0,0-43.5,43.5v348a43.531,43.531,0,0,0,43.5,43.5H706.1a43.531,43.531,0,0,0,43.5-43.5V165.2A43.553,43.553,0,0,0,706.1,121.6Z"/>
      <path id="Path_5" data-name="Path 5" class="cls-3" d="M706.1,121.6H467.2c-6.2,9.6-12.2,19.3-18,29.4C369,289.9,345.7,440.1,375.6,556.6H706a43.531,43.531,0,0,0,43.5-43.5V165.2A43.4,43.4,0,0,0,706.1,121.6Z"/>
      <path id="Path_6" data-name="Path 6" class="cls-4" d="M560.6,371.7H530.4a15.044,15.044,0,0,0-15,15v13.6a15.044,15.044,0,0,0,15,15h30.2a15.044,15.044,0,0,0,15-15V386.7A14.98,14.98,0,0,0,560.6,371.7Z"/>
      <path id="Path_7" data-name="Path 7" class="cls-5" d="M706.1,78.1H695.5A87.024,87.024,0,0,0,608.9,0H87A86.934,86.934,0,0,0,0,87V434.9a87,87,0,0,0,87,87H97.6A87,87,0,0,0,184.1,600H706a87,87,0,0,0,87-87V165A86.892,86.892,0,0,0,706.1,78.1Zm0,43.5a43.531,43.531,0,0,1,43.5,43.5V210h-609V165.1a43.531,43.531,0,0,1,43.5-43.5ZM97.1,478.4H87a43.531,43.531,0,0,1-43.5-43.5V239.2H97.1Zm6.6-346.6H43.5V87A43.531,43.531,0,0,1,87,43.5H608.9a43.556,43.556,0,0,1,42.6,34.6H184.1A87.151,87.151,0,0,0,103.7,131.8ZM706.1,556.5h-522A43.531,43.531,0,0,1,140.6,513V317.3H749.5V513A43.319,43.319,0,0,1,706.1,556.5Z"/>
      <path id="Path_8" data-name="Path 8" class="cls-4" d="M471.9,371.7H201.8a15.044,15.044,0,0,0-15,15v13.6a15.044,15.044,0,0,0,15,15H471.9a15.044,15.044,0,0,0,15-15V386.7A14.98,14.98,0,0,0,471.9,371.7Z"/>
      <path id="Path_9" data-name="Path 9" class="cls-2" d="M608.9,43.5H87A43.531,43.531,0,0,0,43.5,87v44.9h60.2a86.894,86.894,0,0,1,80.4-53.7H651.5A43.544,43.544,0,0,0,608.9,43.5Z"/>
      <path id="Path_10" data-name="Path 10" class="cls-3" d="M608.9,43.5H526q-14.55,16.65-28.3,34.6H651.5A43.556,43.556,0,0,0,608.9,43.5Z"/>
      <path id="Path_11" data-name="Path 11" class="cls-2" d="M43.5,434.9A43.531,43.531,0,0,0,87,478.4H97.1V239.2H43.5Z"/>
    </g>
  </g>
</svg>
